<svg width="39" height="25" viewBox="0 0 39 25" fill="none" xmlns="http://www.w3.org/2000/svg">
<path opacity="0.5" fill-rule="evenodd" clip-rule="evenodd" d="M34.168 11.4365C34.168 15.3365 31.068 18.4365 27.168 18.4365H7.16797C3.26797 18.4365 0.167969 15.3365 0.167969 11.4365V11.4365C0.167969 7.53652 3.26797 4.43652 7.16797 4.43652H27.168C31.068 4.43652 34.168 7.53652 34.168 11.4365V11.4365V11.4365Z" fill="#0F3DDE"/>
<g filter="url(#filter0_dd_120_578)">
<path fill-rule="evenodd" clip-rule="evenodd" d="M26.168 21.4365C31.6908 21.4365 36.168 16.9594 36.168 11.4365C36.168 5.91368 31.6908 1.43652 26.168 1.43652C20.6451 1.43652 16.168 5.91368 16.168 11.4365C16.168 16.9594 20.6451 21.4365 26.168 21.4365Z" fill="#0F3DDE"/>
<path d="M35.918 11.4365C35.918 16.8213 31.5527 21.1865 26.168 21.1865C20.7832 21.1865 16.418 16.8213 16.418 11.4365C16.418 6.05175 20.7832 1.68652 26.168 1.68652C31.5527 1.68652 35.918 6.05175 35.918 11.4365Z" stroke="url(#paint0_linear_120_578)" stroke-width="0.5"/>
<path d="M35.918 11.4365C35.918 16.8213 31.5527 21.1865 26.168 21.1865C20.7832 21.1865 16.418 16.8213 16.418 11.4365C16.418 6.05175 20.7832 1.68652 26.168 1.68652C31.5527 1.68652 35.918 6.05175 35.918 11.4365Z" stroke="url(#paint1_linear_120_578)" stroke-width="0.5"/>
</g>
<defs>
<filter id="filter0_dd_120_578" x="14.168" y="0.436523" width="24" height="24" filterUnits="userSpaceOnUse" color-interpolation-filters="sRGB">
<feFlood flood-opacity="0" result="BackgroundImageFix"/>
<feColorMatrix in="SourceAlpha" type="matrix" values="0 0 0 0 0 0 0 0 0 0 0 0 0 0 0 0 0 0 127 0" result="hardAlpha"/>
<feOffset dy="1"/>
<feGaussianBlur stdDeviation="1"/>
<feColorMatrix type="matrix" values="0 0 0 0 0 0 0 0 0 0 0 0 0 0 0 0 0 0 0.2 0"/>
<feBlend mode="normal" in2="BackgroundImageFix" result="effect1_dropShadow_120_578"/>
<feColorMatrix in="SourceAlpha" type="matrix" values="0 0 0 0 0 0 0 0 0 0 0 0 0 0 0 0 0 0 127 0" result="hardAlpha"/>
<feOffset dy="0.1"/>
<feGaussianBlur stdDeviation="0.15"/>
<feColorMatrix type="matrix" values="0 0 0 0 0 0 0 0 0 0 0 0 0 0 0 0 0 0 0.1 0"/>
<feBlend mode="normal" in2="effect1_dropShadow_120_578" result="effect2_dropShadow_120_578"/>
<feBlend mode="normal" in="SourceGraphic" in2="effect2_dropShadow_120_578" result="shape"/>
</filter>
<linearGradient id="paint0_linear_120_578" x1="16.2658" y1="1.43652" x2="16.2658" y2="21.2408" gradientUnits="userSpaceOnUse">
<stop stop-opacity="0.01"/>
<stop offset="0.8" stop-opacity="0.02"/>
<stop offset="1" stop-opacity="0.04"/>
</linearGradient>
<linearGradient id="paint1_linear_120_578" x1="16.168" y1="1.43652" x2="16.168" y2="21.4365" gradientUnits="userSpaceOnUse">
<stop stop-color="white" stop-opacity="0.12"/>
<stop offset="0.2" stop-color="white" stop-opacity="0.06"/>
<stop offset="1" stop-color="white" stop-opacity="0.01"/>
</linearGradient>
</defs>
</svg>
