<svg width="39" height="25" viewBox="0 0 39 25" fill="none" xmlns="http://www.w3.org/2000/svg">
<path fill-rule="evenodd" clip-rule="evenodd" d="M31.6851 18.4365H11.6851C7.78506 18.4365 4.68506 15.3365 4.68506 11.4365C4.68506 7.53652 7.78506 4.43652 11.6851 4.43652H31.6851C35.5851 4.43652 38.6851 7.53652 38.6851 11.4365C38.6851 15.3365 35.5851 18.4365 31.6851 18.4365Z" fill="#3C3C43" fill-opacity="0.3"/>
<g filter="url(#filter0_dd_119_332)">
<path fill-rule="evenodd" clip-rule="evenodd" d="M12.6851 21.4365C18.2079 21.4365 22.6851 16.9594 22.6851 11.4365C22.6851 5.91368 18.2079 1.43652 12.6851 1.43652C7.16221 1.43652 2.68506 5.91368 2.68506 11.4365C2.68506 16.9594 7.16221 21.4365 12.6851 21.4365Z" fill="white"/>
<path d="M22.4351 11.4365C22.4351 16.8213 18.0698 21.1865 12.6851 21.1865C7.30028 21.1865 2.93506 16.8213 2.93506 11.4365C2.93506 6.05175 7.30028 1.68652 12.6851 1.68652C18.0698 1.68652 22.4351 6.05175 22.4351 11.4365Z" stroke="url(#paint0_linear_119_332)" stroke-width="0.5"/>
<path d="M22.4351 11.4365C22.4351 16.8213 18.0698 21.1865 12.6851 21.1865C7.30028 21.1865 2.93506 16.8213 2.93506 11.4365C2.93506 6.05175 7.30028 1.68652 12.6851 1.68652C18.0698 1.68652 22.4351 6.05175 22.4351 11.4365Z" stroke="url(#paint1_linear_119_332)" stroke-width="0.5"/>
</g>
<defs>
<filter id="filter0_dd_119_332" x="0.685059" y="0.436523" width="24" height="24" filterUnits="userSpaceOnUse" color-interpolation-filters="sRGB">
<feFlood flood-opacity="0" result="BackgroundImageFix"/>
<feColorMatrix in="SourceAlpha" type="matrix" values="0 0 0 0 0 0 0 0 0 0 0 0 0 0 0 0 0 0 127 0" result="hardAlpha"/>
<feOffset dy="1"/>
<feGaussianBlur stdDeviation="1"/>
<feColorMatrix type="matrix" values="0 0 0 0 0 0 0 0 0 0 0 0 0 0 0 0 0 0 0.2 0"/>
<feBlend mode="normal" in2="BackgroundImageFix" result="effect1_dropShadow_119_332"/>
<feColorMatrix in="SourceAlpha" type="matrix" values="0 0 0 0 0 0 0 0 0 0 0 0 0 0 0 0 0 0 127 0" result="hardAlpha"/>
<feOffset dy="0.1"/>
<feGaussianBlur stdDeviation="0.15"/>
<feColorMatrix type="matrix" values="0 0 0 0 0 0 0 0 0 0 0 0 0 0 0 0 0 0 0.1 0"/>
<feBlend mode="normal" in2="effect1_dropShadow_119_332" result="effect2_dropShadow_119_332"/>
<feBlend mode="normal" in="SourceGraphic" in2="effect2_dropShadow_119_332" result="shape"/>
</filter>
<linearGradient id="paint0_linear_119_332" x1="2.78291" y1="1.43652" x2="2.78291" y2="21.2408" gradientUnits="userSpaceOnUse">
<stop stop-opacity="0.01"/>
<stop offset="0.8" stop-opacity="0.02"/>
<stop offset="1" stop-opacity="0.04"/>
</linearGradient>
<linearGradient id="paint1_linear_119_332" x1="2.68506" y1="1.43652" x2="2.68506" y2="21.4365" gradientUnits="userSpaceOnUse">
<stop stop-color="white" stop-opacity="0.12"/>
<stop offset="0.2" stop-color="white" stop-opacity="0.06"/>
<stop offset="1" stop-color="white" stop-opacity="0.01"/>
</linearGradient>
</defs>
</svg>
