<svg width="38" height="25" viewBox="0 0 38 25" fill="none" xmlns="http://www.w3.org/2000/svg">
<path opacity="0.5" fill-rule="evenodd" clip-rule="evenodd" d="M34 11.75C34 15.65 30.9 18.75 27 18.75H7C3.1 18.75 0 15.65 0 11.75C0 7.85 3.1 4.75 7 4.75H27C30.9 4.75 34 7.85 34 11.75Z" fill="#0F3DDE"/>
<g filter="url(#filter0_dd_132_162)">
<path fill-rule="evenodd" clip-rule="evenodd" d="M26 21.75C31.5228 21.75 36 17.2728 36 11.75C36 6.22715 31.5228 1.75 26 1.75C20.4772 1.75 16 6.22715 16 11.75C16 17.2728 20.4772 21.75 26 21.75Z" fill="#0F3DDE"/>
<path d="M35.75 11.75C35.75 17.1348 31.3848 21.5 26 21.5C20.6152 21.5 16.25 17.1348 16.25 11.75C16.25 6.36522 20.6152 2 26 2C31.3848 2 35.75 6.36522 35.75 11.75Z" stroke="url(#paint0_linear_132_162)" stroke-width="0.5"/>
<path d="M35.75 11.75C35.75 17.1348 31.3848 21.5 26 21.5C20.6152 21.5 16.25 17.1348 16.25 11.75C16.25 6.36522 20.6152 2 26 2C31.3848 2 35.75 6.36522 35.75 11.75Z" stroke="url(#paint1_linear_132_162)" stroke-width="0.5"/>
</g>
<defs>
<filter id="filter0_dd_132_162" x="14" y="0.75" width="24" height="24" filterUnits="userSpaceOnUse" color-interpolation-filters="sRGB">
<feFlood flood-opacity="0" result="BackgroundImageFix"/>
<feColorMatrix in="SourceAlpha" type="matrix" values="0 0 0 0 0 0 0 0 0 0 0 0 0 0 0 0 0 0 127 0" result="hardAlpha"/>
<feOffset dy="1"/>
<feGaussianBlur stdDeviation="1"/>
<feColorMatrix type="matrix" values="0 0 0 0 0 0 0 0 0 0 0 0 0 0 0 0 0 0 0.2 0"/>
<feBlend mode="normal" in2="BackgroundImageFix" result="effect1_dropShadow_132_162"/>
<feColorMatrix in="SourceAlpha" type="matrix" values="0 0 0 0 0 0 0 0 0 0 0 0 0 0 0 0 0 0 127 0" result="hardAlpha"/>
<feOffset dy="0.1"/>
<feGaussianBlur stdDeviation="0.15"/>
<feColorMatrix type="matrix" values="0 0 0 0 0 0 0 0 0 0 0 0 0 0 0 0 0 0 0.1 0"/>
<feBlend mode="normal" in2="effect1_dropShadow_132_162" result="effect2_dropShadow_132_162"/>
<feBlend mode="normal" in="SourceGraphic" in2="effect2_dropShadow_132_162" result="shape"/>
</filter>
<linearGradient id="paint0_linear_132_162" x1="16.0979" y1="1.75" x2="16.0979" y2="21.5543" gradientUnits="userSpaceOnUse">
<stop stop-opacity="0.01"/>
<stop offset="0.8" stop-opacity="0.02"/>
<stop offset="1" stop-opacity="0.04"/>
</linearGradient>
<linearGradient id="paint1_linear_132_162" x1="16" y1="1.75" x2="16" y2="21.75" gradientUnits="userSpaceOnUse">
<stop stop-color="white" stop-opacity="0.12"/>
<stop offset="0.2" stop-color="white" stop-opacity="0.06"/>
<stop offset="1" stop-color="white" stop-opacity="0.01"/>
</linearGradient>
</defs>
</svg>
