<svg width="36" height="37" viewBox="0 0 36 37" fill="none" xmlns="http://www.w3.org/2000/svg">
<path d="M27 20.0413H19.5V27.7497C19.5 28.5976 18.825 29.2913 18 29.2913C17.175 29.2913 16.5 28.5976 16.5 27.7497V20.0413H9C8.175 20.0413 7.5 19.3476 7.5 18.4997C7.5 17.6518 8.175 16.958 9 16.958H16.5V9.24967C16.5 8.40176 17.175 7.70801 18 7.70801C18.825 7.70801 19.5 8.40176 19.5 9.24967V16.958H27C27.825 16.958 28.5 17.6518 28.5 18.4997C28.5 19.3476 27.825 20.0413 27 20.0413Z" fill="#007AFF"/>
</svg>
