<svg width="22" height="19" viewBox="0 0 22 19" fill="none" xmlns="http://www.w3.org/2000/svg">
<path d="M0 8.5C0 8.5 4.188 2.5 11 2.5C11.947 2.5 12.839 2.621 13.678 2.822L7.36 9.14C7.12415 8.62535 7.00139 8.06611 7 7.5C7 6.563 7.335 5.713 7.875 5.031C5.483 5.843 3.661 7.416 2.621 8.5C3.50694 9.42431 4.50856 10.2303 5.601 10.898L4.148 12.351C1.497 10.63 0 8.5 0 8.5ZM22 8.5C22 8.5 17.812 14.5 11 14.5C10.054 14.5 9.164 14.376 8.324 14.177L4 18.5L2.5 17L19.5 0L21 1.5L17.853 4.647C20.501 6.369 22 8.5 22 8.5ZM19.385 8.506C18.4975 7.57914 17.4934 6.77139 16.398 6.103L15 7.5C15 8.56086 14.5786 9.57828 13.8284 10.3284C13.0783 11.0786 12.0609 11.5 11 11.5L10.053 12.447C10.363 12.478 10.677 12.5 11 12.5C14.978 12.5 17.943 10.022 19.385 8.506Z" fill="black"/>
</svg>
