<svg width="24" height="24" viewBox="0 0 24 24" fill="none" xmlns="http://www.w3.org/2000/svg">
<path d="M1.03809 11C1.03809 11 5.12256 5 11.7662 5C12.6898 5 13.5597 5.121 14.378 5.322L8.21615 11.64C7.98614 11.1253 7.86641 10.5661 7.86505 10C7.86505 9.063 8.19177 8.213 8.71842 7.531C6.38555 8.343 4.60859 9.916 3.5943 11C4.45834 11.9243 5.4352 12.7303 6.50063 13.398L5.08355 14.851C2.49808 13.13 1.03809 11 1.03809 11ZM22.4943 11C22.4943 11 18.4098 17 11.7662 17C10.8436 17 9.97556 16.876 9.15632 16.677L4.93921 21L3.47629 19.5L20.0561 2.5L21.519 4L18.4498 7.147C21.0323 8.869 22.4943 11 22.4943 11ZM19.9439 11.006C19.0783 10.0791 18.0991 9.27139 17.0307 8.603L15.6673 10C15.6673 11.0609 15.2563 12.0783 14.5247 12.8284C13.7931 13.5786 12.8008 14 11.7662 14L10.8426 14.947C11.1449 14.978 11.4512 15 11.7662 15C15.6458 15 18.5375 12.522 19.9439 11.006Z" fill="black"/>
</svg>
