<svg width="7" height="23" viewBox="0 0 7 23" fill="none" xmlns="http://www.w3.org/2000/svg">
<path d="M3.38614 6.03073C2.48808 6.03073 1.6268 5.73987 0.991778 5.22213C0.356754 4.7044 0 4.00219 0 3.27C0 2.53781 0.356754 1.83561 0.991778 1.31788C1.6268 0.800139 2.48808 0.509277 3.38614 0.509277C4.2842 0.509277 5.14548 0.800139 5.7805 1.31788C6.41552 1.83561 6.77228 2.53781 6.77228 3.27C6.77228 4.00219 6.41552 4.7044 5.7805 5.22213C5.14548 5.73987 4.2842 6.03073 3.38614 6.03073ZM3.38614 14.3129C2.48808 14.3129 1.6268 14.022 0.991778 13.5043C0.356754 12.9866 0 12.2844 0 11.5522C0 10.82 0.356754 10.1178 0.991778 9.60005C1.6268 9.08232 2.48808 8.79146 3.38614 8.79146C4.2842 8.79146 5.14548 9.08232 5.7805 9.60005C6.41552 10.1178 6.77228 10.82 6.77228 11.5522C6.77228 12.2844 6.41552 12.9866 5.7805 13.5043C5.14548 14.022 4.2842 14.3129 3.38614 14.3129ZM3.38614 22.5951C2.48808 22.5951 1.6268 22.3042 0.991778 21.7865C0.356754 21.2688 0 20.5666 0 19.8344C0 19.1022 0.356754 18.4 0.991778 17.8822C1.6268 17.3645 2.48808 17.0736 3.38614 17.0736C4.2842 17.0736 5.14548 17.3645 5.7805 17.8822C6.41552 18.4 6.77228 19.1022 6.77228 19.8344C6.77228 20.5666 6.41552 21.2688 5.7805 21.7865C5.14548 22.3042 4.2842 22.5951 3.38614 22.5951Z" fill="#AAB2C8"/>
</svg>
